<svg width="260" height="260" xmlns="http://www.w3.org/2000/svg">
    <path fill="#ffcc00" stroke="#000000" stroke-width="7" stroke-miterlimit="4" d="m13.684242,210.960907c-1.631832,3.141983 -3.555143,6.079559 -3.555323,9.527863l0.016121,1.441208c0,7.44249 5.83098,11.941727 12.534727,11.941727l216.607708,0c6.704285,0 12.478119,-5.577423 12.478119,-13.019913l-0.071167,-1.447601c0,-3.448334 -1.696655,-6.442673 -3.554779,-9.527908l-107.274673,-192.270634c-4.739578,-5.261784 -12.423538,-5.261784 -17.163849,0.00071l-110.016884,193.354549z"/>
    <path fill="#000000" d="m150.597687,191.75415a17.091516,17.077017 0 1 1-34.183014,0a17.091516,17.077017 0 1 134.183014,0z"/>
    <path fill="#000000" d="m133.394882,73.106613c6.7146,0 17.135437,5.345276 17.135437,11.984901l-5.015228,69.004005c0,6.639648 -5.405609,11.984924 -12.120209,11.984924c-6.7146,0 -12.120193,-5.345276 -12.120193,-11.984924l-5.851135,-69.004005c0,-6.639626 11.256729,-11.984901 17.971329,-11.984901z"/>
</svg>